<svg xmlns="http://www.w3.org/2000/svg" xmlns:xlink="http://www.w3.org/1999/xlink" width="462" height="1468" viewBox="0 0 462 1468"><svg width="462" height="52.88" viewBox="0 0 462 52.88" id="dashed-arc" y="0"><defs><style>.a{fill:none;stroke:#279fd7;stroke-dasharray:4 2}</style></defs><title>dashed-arc</title><path class="a" d="M.5 51.5S85 .5 230.5.5s231 50 231 50"></path></svg><svg width="9" height="16" viewBox="0 0 9 16" id="icon-arrow-left" y="53"><defs><style>.a{fill:none;stroke:#aeb2bb;stroke-linecap:round;stroke-linejoin:round;stroke-width:2px}</style></defs><title>icon-arrow-left</title><path class="a" d="M8 15L1 8l7-7"></path></svg><svg width="7" height="12" viewBox="0 0 7 12" id="icon-arrow-menu" y="69"><defs><style>.a{fill:none;stroke:#f3c216;stroke-linecap:round;stroke-linejoin:round;stroke-width:2px}</style></defs><title>icon-arrow-menu</title><path class="a" d="M1 1l5 5-5 5"></path></svg><svg width="9" height="16" viewBox="0 0 9 16" id="icon-arrow-right" y="81"><defs><style>.a{fill:none;stroke:#4c9d11;stroke-linecap:round;stroke-linejoin:round;stroke-width:2px}</style></defs><title>icon-arrow-right</title><path class="a" d="M1 1l7 7-7 7"></path></svg><svg width="18" height="18" viewBox="0 0 18 18" id="icon-atom" y="97"><defs><style>.a,.b{fill:none;stroke:#fff;stroke-miterlimit:10;stroke-width:2px}.a{fill-rule:evenodd}</style></defs><title>icon-atom</title><path class="a" d="M1.41 1.41c1.4-1.4 5.93.87 10.12 5.06S18 15.2 16.59 16.59s-5.93-.87-10.12-5.06S0 2.8 1.41 1.41z"></path><ellipse class="b" cx="9" cy="9" rx="10.74" ry="3.58" transform="rotate(-45 8.999 9.003)"></ellipse></svg><svg width="26.72" height="24.56" viewBox="0 0 26.72 24.56" id="icon-attach" y="115"><defs><style>.a{fill:none;stroke:#aeb2bb;stroke-linecap:round;stroke-linejoin:round;stroke-width:2px}</style></defs><title>icon-attach</title><path class="a" d="M9.39 13.09l4.92-4.92a3 3 0 1 1 4.24 4.24l-9 9a5 5 0 0 1-7.07-7.07L13.78 3a7 7 0 1 1 9.9 9.9L13.07 23.54"></path></svg><svg width="13" height="11" viewBox="0 0 13 11" id="icon-calendar" y="140"><defs><style>.a{fill:#aeb2bb}</style></defs><title>icon-calendar</title><path class="a" d="M11 11H2a2 2 0 0 1-2-2V2a2 2 0 0 1 2-2h9a2 2 0 0 1 2 2v7a2 2 0 0 1-2 2zm1-8H1v5a2 2 0 0 0 2 2h7a2 2 0 0 0 2-2zM9 8H8V7H5v1H4V7H3V6h1V5h1v1h3V5h1v1h1v1H9z"></path></svg><svg width="20" height="18" viewBox="0 0 20 18" id="icon-chart" y="151"><defs><style>.a{fill:none;stroke:#fff;stroke-linecap:round;stroke-linejoin:round;stroke-width:2px}</style></defs><title>icon-chart</title><path class="a" d="M15 17V2a1 1 0 0 1 1-1h2a1 1 0 0 1 1 1v15M8 17V7a1 1 0 0 1 1-1h2a1 1 0 0 1 1 1v10M1 17v-4a1 1 0 0 1 1-1h2a1 1 0 0 1 1 1v4"></path></svg><svg width="12" height="14" viewBox="0 0 12 14" id="icon-collapse-block-left" y="169"><defs><style>.a{fill:none;stroke:#aeb2bb;stroke-linecap:round;stroke-linejoin:round;stroke-width:2px}</style></defs><title>icon-collapse-block-left</title><path class="a" d="M11 12L6 7l5-5M1 1v12"></path></svg><svg width="12" height="14" viewBox="0 0 12 14" id="icon-collapse-block-right" y="183"><defs><style>.a{fill:none;stroke:#aeb2bb;stroke-linecap:round;stroke-linejoin:round;stroke-width:2px}</style></defs><title>icon-collapse-block-right</title><path class="a" d="M1 2l5 5-5 5m10 1V1"></path></svg><svg width="20" height="25" viewBox="0 0 20 25" id="icon-consultant" y="197"><defs><style>.a{fill:none;stroke:#fff;stroke-width:2px}</style></defs><title>icon-consultant</title><path class="a" d="M10 11c2.76 0 4-3.24 4-6s-1.24-4-4-4-4 1.24-4 4 1.24 6 4 6zM10 14c-5 0-9 1.34-9 3v5a2 2 0 0 0 2 2h14a2 2 0 0 0 2-2v-5c0-1.66-4-3-9-3z"></path></svg><svg width="39" height="53" viewBox="0 0 39 53" id="icon-doc" y="222"><defs><style>.a{fill:#fafafa;stroke:#d0d3da}.b{fill:#d0d3da}.c{fill:#1d6bb2}.d{fill:#eab515}</style></defs><title>icon-doc</title><path class="a" d="M36.5 52.5h-34a2 2 0 0 1-2-2v-48a2 2 0 0 1 2-2h26v8a2 2 0 0 0 2 2h8v40a2 2 0 0 1-2 2z"></path><path class="b" d="M29 0l10 10H29zM11 17h16a1 1 0 0 1 1 1v3a1 1 0 0 1-1 1H11a1 1 0 0 1-1-1v-3a1 1 0 0 1 1-1zM6 27h26a1 1 0 0 1 0 2H6a1 1 0 0 1 0-2zm0 4h26a1 1 0 0 1 0 2H6a1 1 0 0 1 0-2zm0 8h8a1 1 0 0 1 0 2H6a1 1 0 0 1 0-2zm18 0h8a1 1 0 0 1 0 2h-8a1 1 0 0 1 0-2z"></path><path class="c" d="M8.5 38.5A1.5 1.5 0 1 0 10 40a1.49 1.49 0 0 0-1.51-1.5zm0 0A1.5 1.5 0 1 0 10 40a1.49 1.49 0 0 0-1.51-1.5zm0-2A3.5 3.5 0 1 0 12 40a3.5 3.5 0 0 0-3.5-3.5zm0 6A2.5 2.5 0 1 1 11 40a2.5 2.5 0 0 1-2.5 2.5zm0-4A1.5 1.5 0 1 0 10 40a1.49 1.49 0 0 0-1.51-1.5z"></path><path class="d" d="M29.5 38.5A1.5 1.5 0 1 0 31 40a1.49 1.49 0 0 0-1.51-1.5zm0 0A1.5 1.5 0 1 0 31 40a1.49 1.49 0 0 0-1.51-1.5zm0-2A3.5 3.5 0 1 0 33 40a3.5 3.5 0 0 0-3.5-3.5zm0 6A2.5 2.5 0 1 1 32 40a2.5 2.5 0 0 1-2.5 2.5zm0-4A1.5 1.5 0 1 0 31 40a1.49 1.49 0 0 0-1.51-1.5z"></path></svg><svg width="26" height="34" viewBox="0 0 26 34" id="icon-doc2" y="275"><defs><style>.a{fill:#fafafa;stroke:#d0d3da}.b{fill:#d0d3da}</style></defs><title>icon-doc2</title><path class="a" d="M19.5.5v4a2 2 0 0 0 2 2h4v25a2 2 0 0 1-2 2h-21a2 2 0 0 1-2-2v-29a2 2 0 0 1 2-2z"></path><path class="b" d="M20 0l6 6h-6zM10.86 9h4.29a.94.94 0 0 1 .85 1v3a.94.94 0 0 1-.86 1h-4.28a.94.94 0 0 1-.86-1v-3a.94.94 0 0 1 .86-1zM6.5 18h13a1 1 0 0 1 1 1 1 1 0 0 1-1 1h-13a1 1 0 0 1-1-1 1 1 0 0 1 1-1zm0 5h2a1 1 0 0 1 0 2h-2a1 1 0 0 1 0-2zm11 0h2a1 1 0 0 1 0 2h-2a1 1 0 0 1 0-2z"></path></svg><svg width="20" height="16" viewBox="0 0 20 16" id="icon-download" y="309"><defs><style>.a{fill:none;stroke:#aeb2bb;stroke-linecap:round;stroke-linejoin:round;stroke-width:2px}</style></defs><title>icon-download</title><path class="a" d="M19 8v5a2 2 0 0 1-2 2H3a2 2 0 0 1-2-2V8m9 1V1M6 6l4 3 4-3"></path></svg><svg width="23.19" height="23.22" viewBox="0 0 23.19 23.22" id="icon-email" y="325"><defs><style>.a{fill:#424a60}</style></defs><title>icon-email</title><path class="a" d="M11.59 15a3.42 3.42 0 1 0-2.41-1 3.29 3.29 0 0 0 2.41 1zm10.47-8.44A11.17 11.17 0 0 1 23.19 11a11.65 11.65 0 0 1-.63 4.49 12 12 0 0 1-.87 1.89L21 18.51a.21.21 0 0 1-.26.13h-.07l-4.3-2.54a6.43 6.43 0 0 1-2.47 1.65 6.64 6.64 0 0 1-3.08.39A6.39 6.39 0 0 1 7 16.21a6.31 6.31 0 0 1-1.87-3.9 6.73 6.73 0 0 1 .37-3A6.64 6.64 0 0 1 7 6.91a6.27 6.27 0 0 1 2.5-1.5 6.49 6.49 0 0 1 3-.3 6.34 6.34 0 0 1 3.62 1.79 6.5 6.5 0 0 1 1.78 6.42l1.73 1A8.49 8.49 0 0 0 7.92 3.95a8.36 8.36 0 0 0-3.14 2.57 8.62 8.62 0 0 0-1.6 3.8 8.11 8.11 0 0 0 .2 3.49 8.49 8.49 0 0 0 10.72 5.88.22.22 0 0 1 .29.12l.85 2.5a.22.22 0 0 1-.1.3 11.53 11.53 0 0 1-3.53.56 11.34 11.34 0 0 1-3.84-.67 11.53 11.53 0 0 1-6.62-5.92A11.72 11.72 0 0 1 0 12.3a11.47 11.47 0 0 1 .62-4.56 11.69 11.69 0 0 1 2.3-3.9 11.82 11.82 0 0 1 3.63-2.73A11.59 11.59 0 0 1 22 6.55z"></path></svg><svg width="24" height="24" viewBox="0 0 24 24" id="icon-email2" y="349"><defs><style>.a{fill:none;stroke:#fff;stroke-linecap:round;stroke-linejoin:round;stroke-width:2px}</style></defs><title>icon-email2</title><path class="a" d="M12 6a6 6 0 1 1-6 6 6 6 0 0 1 6-6zm2.28 16.76a11 11 0 1 1 6.42-4A51.61 51.61 0 0 0 17 15"></path></svg><svg width="10" height="19" viewBox="0 0 10 19" id="icon-facebook" y="373"><defs><style>.a{fill:#aeb2bb}</style></defs><title>icon-facebook</title><path class="a" d="M0 10.33V7h2.91V4.43a4.27 4.27 0 0 1 1.25-3.25A4.48 4.48 0 0 1 7.39 0 18.53 18.53 0 0 1 10 .1v3.05H8.11a1.5 1.5 0 0 0-1.66 1.5v2.24h3.44l-.42 3.45H6.56V19H3v-8.67H0"></path></svg><svg width="38" height="62" viewBox="0 0 38 62" id="icon-flag-blue" y="392"><defs><style>.a{opacity:.1;isolation:isolate}.b{fill:none;stroke:#aeb2bb;stroke-linecap:round;stroke-width:2px}.c{fill:#1d6bb2}</style></defs><title>icon-flag-blue</title><ellipse class="a" cx="7" cy="60" rx="7" ry="2"></ellipse><path class="b" d="M7 59V1"></path><path class="c" d="M38 16.5L6 3v27z"></path></svg><svg width="38" height="62" viewBox="0 0 38 62" id="icon-flag-red" y="454"><defs><style>.a{opacity:.1;isolation:isolate}.b{fill:none;stroke:#aeb2bb;stroke-linecap:round;stroke-width:2px}.c{fill:#dd2c00}</style></defs><title>icon-flag-red</title><ellipse class="a" cx="7" cy="60" rx="7" ry="2"></ellipse><path class="b" d="M7 59V1"></path><path class="c" d="M38 16.5L6 3v27z"></path></svg><svg width="16" height="16" viewBox="0 0 16 16" id="icon-flag-ua" y="516"><defs><style>.a{fill:gold}.b{fill:#0057b8}</style></defs><title>icon-flag-ua</title><path class="a" d="M16 8A8 8 0 0 1 0 8z"></path><path class="b" d="M16 8H0a8 8 0 0 1 16 0z"></path></svg><svg width="40" height="40" viewBox="0 0 40 40" id="icon-guest" y="532"><defs><style>.a{fill:#fff}</style></defs><title>icon-guest</title><path class="a" d="M20 28c-3.94 0-7.11-4.2-7.11-10.79S16.06 10 20 10s7.1.6 7.1 7.2S23.93 28 20 28zM5 40v-3.3c0-3.14 5.66-5.58 15-5.58s15 2.43 15 5.58V40z"></path></svg><svg width="21" height="13" viewBox="0 0 21 13" id="icon-hide" y="572"><defs><style>.a{fill:none;stroke:#aeb2bb;stroke-linecap:round;stroke-linejoin:round;stroke-width:2px}.b{fill:#aeb2bb}</style></defs><title>icon-hide</title><path class="a" d="M10.5 2C15.75 2 20 6.5 20 6.5S15.75 11 10.5 11 1 6.5 1 6.5 5.25 2 10.5 2z"></path><circle class="b" cx="10.5" cy="6.5" r="2.5"></circle><path class="a" d="M1 12L20 1"></path></svg><svg width="21.63" height="19.47" viewBox="0 0 21.63 19.47" id="icon-home" y="585"><defs><style>.a{fill:none;stroke:#fff;stroke-linecap:round;stroke-linejoin:round;stroke-width:2px}</style></defs><title>icon-home</title><path class="a" d="M19.22 10.5h-1v6a2 2 0 0 1-2 2h-3v-5a1 1 0 0 0-1-1h-3a1 1 0 0 0-1 1v5h-3a2 2 0 0 1-2-2v-6h-1l8-9z"></path></svg><svg width="43.25" height="28.28" viewBox="0 0 43.25 28.28" id="icon-lemons" y="605"><defs><style>.a{fill:#f3c216}.b{fill:#42890f}.c{fill:#4c9d11}</style></defs><title>icon-lemons</title><path class="a" d="M22.21 5.88C16.53.24 8.74-1.3 3.95 2a1.9 1.9 0 1 0-2.59 2.75C-1.47 9.53.18 16.92 5.64 22.35c3.88 3.85 8.74 5.79 13 5.59a4.32 4.32 0 0 1-.11-1c-2.83-4-2.77-10 .33-15.33A17.47 17.47 0 0 1 23 6.76c-.22-.3-.5-.59-.79-.88zm13.16 2.45a1.44 1.44 0 0 0-.43-1.93 1.48 1.48 0 0 0-2 .67c-3.8-1.07-8.62 1.44-11.37 6.16s-2.57 10.11.32 12.88a1.36 1.36 0 1 0 2.29 1.42c3.91 1.39 9-1.1 11.87-6s2.49-10.53-.68-13.2z"></path><path class="b" d="M30.95 0s3 1.3 4 3.68a6.38 6.38 0 0 1-.48 5s-3-1.3-4-3.68a6.38 6.38 0 0 1 .48-5z"></path><path class="c" d="M43.26 7.63A6.76 6.76 0 0 1 38.75 10c-2.64.06-5-2.14-5-2.14a6.76 6.76 0 0 1 4.51-2.36c2.59-.07 5 2.13 5 2.13z"></path></svg><svg width="30" height="28.06" viewBox="0 0 30 28.06" id="icon-link" y="634"><defs><style>.a,.b{fill:none;stroke:#4c9d11;stroke-width:2px}.b{stroke-linecap:round;stroke-linejoin:round}</style></defs><title>icon-link</title><path class="a" d="M3.05 28A17 17 0 0 1 20 12h1"></path><path class="a" d="M17 7l5 5-5 6"></path><path class="b" d="M1 16V3a2 2 0 0 1 2-2h24a2 2 0 0 1 2 2v19a2 2 0 0 1-2 2h-7"></path></svg><svg width="21" height="31" viewBox="0 0 21 31" id="icon-location" y="663"><defs><style>.a{fill:#424a60}.b{fill:#ffc000}</style></defs><title>icon-location</title><path class="a" d="M10.5 0A10.5 10.5 0 0 1 21 10.5C21 16.3 16.3 31 10.5 31S0 16.3 0 10.5A10.5 10.5 0 0 1 10.5 0z"></path><circle class="b" cx="10.5" cy="10.5" r="3.5"></circle></svg><svg width="26" height="21" viewBox="0 0 26 21" id="icon-market" y="694"><defs><style>.a{fill:none;stroke:#4c9d11;stroke-linecap:round;stroke-linejoin:round;stroke-width:2px}</style></defs><title>icon-market</title><path class="a" d="M25 1h-4.09l-5.08 12H5.62L1 4h11.79m2 12a2 2 0 1 1-2 2 2 2 0 0 1 2.02-2zm-8.15 0a2 2 0 1 1-.05 0z"></path></svg><svg width="22" height="36" viewBox="0 0 22 36" id="icon-mobile" y="715"><defs><style>.a{fill:#d0d3da}.b{fill:#424a60}.c{fill:none;stroke:#fff;opacity:.6;isolation:isolate}</style></defs><title>icon-mobile</title><path class="a" d="M2 0h17a2 2 0 0 1 2 2v32a2 2 0 0 1-2 2H2a2 2 0 0 1-2-2V2a2 2 0 0 1 2-2zm18 5h1a1 1 0 0 1 1 1v3a1 1 0 0 1-1 1h-1z"></path><path class="b" d="M0 3h21v27H0zM9 32h3a1 1 0 0 1 1 1 1 1 0 0 1-1 1H9a1 1 0 0 1-1-1 1 1 0 0 1 1-1z"></path><path class="c" d="M14 5l5 5M9 5l10 10"></path></svg><svg width="22" height="36" viewBox="0 0 22 36" id="icon-mobile2" y="751"><defs><style>.a{fill:#d0d3da}.b{fill:#424a60}.c{fill:#ffc000}</style></defs><title>icon-mobile2</title><path class="a" d="M2 0h17a2 2 0 0 1 2 2v32a2 2 0 0 1-2 2H2a2 2 0 0 1-2-2V2a2 2 0 0 1 2-2zm18 5h1a1 1 0 0 1 1 1v3a1 1 0 0 1-1 1h-1z"></path><path class="b" d="M0 3h21v27H0zM9 32h3a1 1 0 0 1 1 1 1 1 0 0 1-1 1H9a1 1 0 0 1-1-1 1 1 0 0 1 1-1z"></path><path class="c" d="M15 24H6a1 1 0 0 1-1-1v-2c0-1.66 2.46-3 5.5-3s5.5 1.34 5.5 3v2a1 1 0 0 1-1 1zm-4.5-8a2.5 2.5 0 1 1 2.5-2.5 2.5 2.5 0 0 1-2.5 2.5z"></path></svg><svg width="20" height="14" viewBox="0 0 20 14" id="icon-more" y="787"><defs><style>.a{fill:#fff}</style></defs><title>icon-more</title><path class="a" d="M6 0h14v2H6zM0 6h16v2H0zm4 6h15v2H4z"></path></svg><svg width="11" height="20" viewBox="0 0 11 20" id="icon-next" y="801"><defs><style>.a{fill:none;stroke:#aeb2bb;stroke-linecap:round;stroke-linejoin:round;stroke-width:2px}</style></defs><title>icon-next</title><path class="a" d="M1 1l9 9-9 9"></path></svg><svg width="25.03" height="33" viewBox="0 0 25.03 33" id="icon-notification" y="821"><defs><style>.a{fill:#fff}.b{fill:none;stroke:#aeb2bb;stroke-width:2px}</style></defs><title>icon-notification</title><circle class="a" cx="12.53" cy="30.5" r="2.5"></circle><path class="b" d="M13.92 23a1.45 1.45 0 0 1 .11.51 1.5 1.5 0 0 1-3 0 1.44 1.44 0 0 1 .1-.51C5 23 .62 23 1 21.11a2 2 0 0 1 .56-.95 6.18 6.18 0 0 0 1.56-2.57c.38-1.4.75-2.93 1.06-3.93.55-1.74 1.07-3.38 1.68-4.88C7 6 8.85 3.93 11 3.26v-.93a1.5 1.5 0 0 1 3 0v.93c2.18.67 4 2.72 5.13 5.52.61 1.5 1.13 3.15 1.68 4.88.31 1 .68 2.53 1.06 3.93a6.29 6.29 0 0 0 1.56 2.57 2 2 0 0 1 .56.95C24.43 23 20.08 23 13.92 23z"></path></svg><svg width="10.03" height="12" viewBox="0 0 10.03 12" id="icon-ok" y="854"><defs><style>.a{fill:none;stroke:#4c9d11;stroke-linecap:round;stroke-linejoin:round;stroke-width:2px}</style></defs><title>icon-ok</title><path class="a" d="M1 7.67L4 11 9 1"></path></svg><svg width="15" height="20.03" viewBox="0 0 15 20.03" id="icon-pass" y="866"><defs><style>.a{fill:none;stroke:#4c9d11;stroke-linecap:round;stroke-linejoin:round;stroke-width:2px}</style></defs><title>icon-pass</title><path class="a" d="M3 6h9a2 2 0 0 1 2 2v9a2 2 0 0 1-2 2H3a2 2 0 0 1-2-2V8a2 2 0 0 1 2-2zm4.5-5A3.5 3.5 0 0 1 11 4.5v1.57H4V4.5A3.5 3.5 0 0 1 7.5 1zm0 11a.5.5 0 1 1-.5.5.5.5 0 0 1 .5-.5z"></path></svg><svg width="21" height="21.97" viewBox="0 0 21 21.97" id="icon-play" y="887"><defs><style>.a{fill:none;stroke:#4c9d11;stroke-linecap:round;stroke-linejoin:round;stroke-width:2px}</style></defs><title>icon-play</title><path class="a" d="M1 1v20l19-10.26z"></path></svg><svg width="19.09" height="19.13" viewBox="0 0 19.09 19.13" id="icon-search" y="909"><defs><style>.a{fill:none;stroke:#aeb2bb;stroke-linecap:round;stroke-linejoin:round;stroke-width:2px}</style></defs><title>icon-search</title><path class="a" d="M10.65 1a7.44 7.44 0 1 1-7.43 7.44A7.44 7.44 0 0 1 10.65 1zM5.44 13.65L1 18.12"></path></svg><svg width="12" height="6" viewBox="0 0 12 6" id="icon-select" y="929"><defs><style>.a{fill:#1a2235}</style></defs><title>icon-select</title><path class="a" d="M12 0L6 6 0 0z"></path></svg><svg width="8" height="4" viewBox="0 0 8 4" id="icon-select-sm" y="935"><defs><style>.a{fill:#1d6bb2}</style></defs><title>icon-select-sm</title><path class="a" d="M8 0L4 4 0 0z"></path></svg><svg width="11.97" height="19.97" viewBox="0 0 11.97 19.97" id="icon-send" y="939"><defs><style>.a{fill:none;stroke:#1d6bb2;stroke-linecap:round;stroke-linejoin:round;stroke-width:4px}</style></defs><title>icon-send</title><path class="a" d="M2 2l8 8-8 8"></path></svg><svg width="18" height="21" viewBox="0 0 18 21" id="icon-shield" y="959"><defs><style>.a{fill:none;stroke:#fff;stroke-linecap:round;stroke-linejoin:round;stroke-width:2px}</style></defs><title>icon-shield</title><path class="a" d="M16.93 5a3.1 3.1 0 0 1-.43 0A3.5 3.5 0 0 1 13 1.5a1.21 1.21 0 0 1 0-.19A19.91 19.91 0 0 0 9 1a19.91 19.91 0 0 0-4 .31 1.21 1.21 0 0 1 0 .19A3.5 3.5 0 0 1 1.5 5a3.1 3.1 0 0 1-.43 0A8.21 8.21 0 0 0 1 6c0 4.42 3.58 14 8 14s8-9.58 8-14a8.21 8.21 0 0 0-.07-1z"></path></svg><svg width="21" height="11" viewBox="0 0 21 11" id="icon-show" y="980"><defs><style>.a{fill:none;stroke:#aeb2bb;stroke-linecap:round;stroke-linejoin:round;stroke-width:2px}.b{fill:#aeb2bb}</style></defs><title>icon-show</title><path class="a" d="M10.5 1C15.75 1 20 5.5 20 5.5S15.75 10 10.5 10 1 5.5 1 5.5 5.25 1 10.5 1z"></path><circle class="b" cx="10.5" cy="5.5" r="2.5"></circle></svg><svg width="19.82" height="19.78" viewBox="0 0 19.82 19.78" id="icon-smth" y="991"><defs><style>.a{fill:none;stroke:#fff;stroke-linecap:round;stroke-linejoin:round;stroke-width:2px}</style></defs><title>icon-smth</title><path class="a" d="M18.81 8.85s-2.62-3.07-5.21-2.67C14 3.57 10.95.93 10.95.93S7.22 2.49 6.81 5.07C4.45 3.87 1 6 1 6s.33 4 2.65 5.22C1.78 13.07 2.72 17 2.72 17s3.93.94 5.78-.91c1.19 2.33 5.22 2.66 5.22 2.66s2.1-3.45.92-5.78c2.62-.39 4.17-4.12 4.17-4.12z"></path></svg><svg width="21" height="17" viewBox="0 0 21 17" id="icon-twitter" y="1011"><defs><style>.a{fill:#aeb2bb}</style></defs><title>icon-twitter</title><path class="a" d="M0 15.13c.3 0 .7.1 1 .1a8.41 8.41 0 0 0 5.33-1.78 3.89 3.89 0 0 1-2.51-.89 5.07 5.07 0 0 1-1.52-2.08c.3 0 .6.1.81.1a3.79 3.79 0 0 0 1.1-.1A4.35 4.35 0 0 1 .69 6.22V6a4.24 4.24 0 0 0 1.91.5A5 5 0 0 1 1.2 5a6 6 0 0 1-.31-2A4.12 4.12 0 0 1 1.5.88 13.29 13.29 0 0 0 5.42 4a12.14 12.14 0 0 0 4.93 1.29 3.33 3.33 0 0 1-.1-1 4.09 4.09 0 0 1 1.3-3.07 4.22 4.22 0 0 1 3-1.29 4.12 4.12 0 0 1 3.11 1.39 8 8 0 0 0 2.72-1 4.46 4.46 0 0 1-1.91 2.37A8.73 8.73 0 0 0 21 2.07a8.65 8.65 0 0 1-2.11 2.18v.59a13.8 13.8 0 0 1-.5 3.46 9.76 9.76 0 0 1-1.51 3.27 13.08 13.08 0 0 1-2.41 2.77 11.47 11.47 0 0 1-3.42 2 12.39 12.39 0 0 1-4.32.66A12.11 12.11 0 0 1 0 15.13"></path></svg><svg width="19" height="17" viewBox="0 0 19 17" id="icon-umbrella" y="1028"><defs><style>.a{fill:none;stroke:#fff;stroke-linecap:round;stroke-linejoin:round;stroke-width:2px}</style></defs><title>icon-umbrella</title><path class="a" d="M17.38 13.29c1.45-3.26.2-6.52-2.44-9.17C12.27 1.45 9 .19 5.77 1.59c-1.58.68-2.1 1.63-1.56 1.82a2.37 2.37 0 0 1 .88.59 2.47 2.47 0 0 1 .6 1c.17.65.1 1.31.22 1.43s.79.06 1.44.23a2.32 2.32 0 0 1 1 .6 2.28 2.28 0 0 1 .6 1c.17.65.1 1.31.23 1.43h.06c.21.08.79 0 1.37.19a2.21 2.21 0 0 1 1 .6 2.27 2.27 0 0 1 .6 1c.18.65.11 1.31.23 1.43s.79.06 1.44.23a2.32 2.32 0 0 1 1.61 1.52c.26.69 1.19.19 1.89-1.37zm-15.77-.7a2 2 0 0 0-.06 2.78 2.08 2.08 0 0 0 2.89 0L10 10"></path></svg><svg width="25" height="31.03" viewBox="0 0 25 31.03" id="icon-user" y="1045"><defs><style>.a{fill:#424a60}.b{fill:#fff}.c{fill:#ffd7ba}.d{fill:#903e0d}</style></defs><title>icon-user</title><path class="a" d="M2.5 31A2.55 2.55 0 0 1 0 28.43v-5.52C0 20.16 4.72 18 12.5 18S25 20.16 25 22.91v5.52A2.55 2.55 0 0 1 22.5 31z"></path><path class="b" d="M10 18h4l-2 5z"></path><path class="c" d="M12 15c-3.32 0-6-3.5-6-9s2.69-4.19 6-4.19S18 .53 18 6s-2.67 9-6 9z"></path><path class="d" d="M18 4.61C16.75-2.05 8.94.51 8.94.51a1 1 0 0 0-.72.64c-4.4 1.28-2 7.44-2 6.87A3.83 3.83 0 0 1 8.6 3.48s3.62 1.63 6.8-.13c1 0 2.31 1.87 2.54 4.21A9.07 9.07 0 0 0 18 4.61z"></path></svg><svg width="16.94" height="17.06" viewBox="0 0 16.94 17.06" id="icon-youtube" y="1077"><defs><style>.a{fill:#aeb2bb}</style></defs><title>icon-youtube</title><path class="a" d="M16.56 9.35L.91 17a.63.63 0 0 1-.9-.58V.67A.63.63 0 0 1 .92.09l15.65 8.1a.65.65 0 0 1 0 1.15z"></path></svg><svg width="12" height="12" viewBox="0 0 12 12" id="icons-edit" y="1095"><defs><style>.a{fill:#aeb2bb}</style></defs><title>icons-edit</title><path class="a" d="M7.45 2l2.44 2.45-6.18 6.21L1.27 8.2zm4.29-.59L10.65.3a1.08 1.08 0 0 0-1.52 0l-1 1 2.39 2.5 1.22-1.22a.85.85 0 0 0 0-1.18zM0 11.66a.28.28 0 0 0 .21.34h.13l2.72-.66L.62 8.87z"></path></svg><svg width="26" height="24.13" viewBox="0 0 26 24.13" id="skype" y="1107"><defs><style>.a{fill:none;stroke:#fff;stroke-width:2px}.b{fill:#fff}</style></defs><title>skype</title><path class="a" d="M19.18 3.43a10.65 10.65 0 0 1 4.44 8.64 10.91 10.91 0 0 1-.11 1.51.42.42 0 0 0 .1.32 5.57 5.57 0 0 1-7.18 8.37.39.39 0 0 0-.33 0A10.63 10.63 0 0 1 2.38 12.06a11 11 0 0 1 .1-1.51.38.38 0 0 0-.09-.32 5.57 5.57 0 0 1 7.18-8.37.39.39 0 0 0 .33 0 10.65 10.65 0 0 1 8 .76z"></path><path class="b" d="M11 12.88a7.51 7.51 0 0 1-1.5-.75A3.23 3.23 0 0 1 8 9.34a3.48 3.48 0 0 1 1.31-2.77 5.31 5.31 0 0 1 3.37-1 7 7 0 0 1 3.43 1 1.26 1.26 0 0 1 .52.82 1.2 1.2 0 0 1-.24.93 1.33 1.33 0 0 1-1.81.27 4.56 4.56 0 0 0-1.9-.59c-1 0-2.1.22-2.1 1.29 0 .64.62 1 2.34 1.54A10.47 10.47 0 0 1 15.44 12 3.25 3.25 0 0 1 17 14.78a3.53 3.53 0 0 1-1.2 2.75 4.63 4.63 0 0 1-3.1 1 5.79 5.79 0 0 1-4.33-1.73 1.22 1.22 0 0 1 .21-1.71 1.33 1.33 0 0 1 1-.23 1.28 1.28 0 0 1 .85.49 3.41 3.41 0 0 0 2.24.77 2.53 2.53 0 0 0 1.1-.22 1.09 1.09 0 0 0 .62-1.07c0-.59-.46-.9-2.22-1.5z"></path></svg><svg width="163.01" height="167.19" viewBox="0 0 163.01 167.19" id="triangle-part-left" y="1132"><defs><style>.a{fill:none;stroke:#fff;stroke-linecap:round;stroke-miterlimit:10;stroke-width:3px}</style></defs><title>triangle-part-left</title><path class="a" d="M24.13 139.12H5L82.98 5.13l6.96 12.44"></path></svg><svg width="163.01" height="167.19" viewBox="0 0 163.01 167.19" id="triangle-part-right" y="1300"><defs><style>.a{fill:none;stroke:#fff;stroke-linecap:round;stroke-miterlimit:10;stroke-width:3px}</style></defs><title>triangle-part-right</title><path class="a" d="M149.03 123.09l8.97 16.03h-19.13"></path></svg></svg>